<?xml version="1.0" encoding="UTF-8"?><svg id="Calque_2" xmlns="http://www.w3.org/2000/svg" viewBox="0 0 768.41 535.66"><defs><style>.cls-1{fill:#322958;stroke-width:0px;}</style></defs><g id="Calque_2-2"><circle class="cls-1" cx="8.11" cy="30.6" r="8.11"/><circle class="cls-1" cx="21.67" cy="8.17" r="8.11"/><circle class="cls-1" cx="48.15" cy="8.17" r="8.11"/><circle class="cls-1" cx="245.24" cy="30.6" r="8.11"/><circle class="cls-1" cx="271.92" cy="30.6" r="8.11"/><circle class="cls-1" cx="298.25" cy="30.6" r="8.11"/><circle class="cls-1" cx="258.74" cy="8.17" r="8.11"/><circle class="cls-1" cx="232.19" cy="8.17" r="8.11"/><circle class="cls-1" cx="285.28" cy="8.17" r="8.11"/><circle class="cls-1" cx="324.57" cy="30.6" r="8.11"/><circle class="cls-1" cx="351.26" cy="30.6" r="8.11"/><circle class="cls-1" cx="377.14" cy="30.6" r="8.11"/><circle class="cls-1" cx="337.75" cy="8.11" r="8.11"/><circle class="cls-1" cx="311.53" cy="8.17" r="8.11"/><circle class="cls-1" cx="363.95" cy="8.17" r="8.11"/><circle class="cls-1" cx="403.79" cy="30.6" r="8.11"/><circle class="cls-1" cx="430.47" cy="30.6" r="8.11"/><circle class="cls-1" cx="456.8" cy="30.6" r="8.11"/><circle class="cls-1" cx="417.29" cy="8.17" r="8.11"/><circle class="cls-1" cx="390.74" cy="8.17" r="8.11"/><circle class="cls-1" cx="443.83" cy="8.17" r="8.11"/><circle class="cls-1" cx="483.12" cy="30.6" r="8.11"/><circle class="cls-1" cx="508.76" cy="30.6" r="8.11"/><circle class="cls-1" cx="535.68" cy="30.6" r="8.11"/><circle class="cls-1" cx="496.3" cy="8.11" r="8.11"/><circle class="cls-1" cx="470.08" cy="8.17" r="8.11"/><circle class="cls-1" cx="522.5" cy="8.17" r="8.11"/><circle class="cls-1" cx="561.46" cy="30.6" r="8.11"/><circle class="cls-1" cx="588.14" cy="30.6" r="8.11"/><circle class="cls-1" cx="614.47" cy="30.6" r="8.11"/><circle class="cls-1" cx="547.85" cy="8.17" r="8.11"/><circle class="cls-1" cx="640.8" cy="30.6" r="8.11"/><circle class="cls-1" cx="667.48" cy="30.6" r="8.11"/><circle class="cls-1" cx="693.36" cy="30.6" r="8.11"/><circle class="cls-1" cx="653.97" cy="8.11" r="8.11"/><circle class="cls-1" cx="627.75" cy="8.17" r="8.11"/><circle class="cls-1" cx="680.18" cy="8.17" r="8.11"/><circle class="cls-1" cx="720.01" cy="30.6" r="8.11"/><circle class="cls-1" cx="746.69" cy="30.6" r="8.11"/><circle class="cls-1" cx="285.28" cy="53.1" r="8.11"/><circle class="cls-1" cx="311.61" cy="53.1" r="8.11"/><circle class="cls-1" cx="337.93" cy="53.1" r="8.11"/><circle class="cls-1" cx="364.62" cy="53.1" r="8.11"/><circle class="cls-1" cx="390.5" cy="53.1" r="8.11"/><circle class="cls-1" cx="417.14" cy="53.1" r="8.11"/><circle class="cls-1" cx="443.83" cy="53.1" r="8.11"/><circle class="cls-1" cx="470.16" cy="53.1" r="8.11"/><circle class="cls-1" cx="496.48" cy="53.1" r="8.11"/><circle class="cls-1" cx="522.12" cy="53.1" r="8.11"/><circle class="cls-1" cx="549.04" cy="53.1" r="8.11"/><circle class="cls-1" cx="574.82" cy="53.1" r="8.11"/><circle class="cls-1" cx="601.5" cy="53.1" r="8.11"/><circle class="cls-1" cx="627.83" cy="53.1" r="8.11"/><circle class="cls-1" cx="654.16" cy="53.1" r="8.11"/><circle class="cls-1" cx="680.84" cy="53.1" r="8.11"/><circle class="cls-1" cx="706.72" cy="53.1" r="8.11"/><circle class="cls-1" cx="733.37" cy="53.1" r="8.11"/><circle class="cls-1" cx="298.25" cy="76.19" r="8.11"/><circle class="cls-1" cx="324.57" cy="76.19" r="8.11"/><circle class="cls-1" cx="350.9" cy="76.19" r="8.11"/><circle class="cls-1" cx="377.59" cy="76.19" r="8.11"/><circle class="cls-1" cx="403.46" cy="76.19" r="8.11"/><circle class="cls-1" cx="430.11" cy="76.19" r="8.11"/><circle class="cls-1" cx="456.8" cy="76.19" r="8.11"/><circle class="cls-1" cx="483.12" cy="76.19" r="8.11"/><circle class="cls-1" cx="509.45" cy="76.19" r="8.11"/><circle class="cls-1" cx="535.09" cy="76.19" r="8.11"/><circle class="cls-1" cx="562.01" cy="76.19" r="8.11"/><circle class="cls-1" cx="587.79" cy="76.19" r="8.11"/><circle class="cls-1" cx="614.47" cy="76.19" r="8.11"/><circle class="cls-1" cx="640.8" cy="76.19" r="8.11"/><circle class="cls-1" cx="667.12" cy="76.19" r="8.11"/><circle class="cls-1" cx="693.81" cy="76.19" r="8.11"/><circle class="cls-1" cx="719.68" cy="76.19" r="8.11"/><circle class="cls-1" cx="311.4" cy="99.28" r="8.11"/><circle class="cls-1" cx="337.73" cy="99.28" r="8.11"/><circle class="cls-1" cx="364.06" cy="99.28" r="8.11"/><circle class="cls-1" cx="390.74" cy="99.28" r="8.11"/><circle class="cls-1" cx="416.62" cy="99.28" r="8.11"/><circle class="cls-1" cx="443.27" cy="99.28" r="8.11"/><circle class="cls-1" cx="469.95" cy="99.28" r="8.11"/><circle class="cls-1" cx="496.28" cy="99.28" r="8.11"/><circle class="cls-1" cx="522.6" cy="99.28" r="8.11"/><circle class="cls-1" cx="548.25" cy="99.28" r="8.11"/><circle class="cls-1" cx="575.17" cy="99.28" r="8.11"/><circle class="cls-1" cx="600.94" cy="99.28" r="8.11"/><circle class="cls-1" cx="627.63" cy="99.28" r="8.11"/><circle class="cls-1" cx="653.95" cy="99.28" r="8.11"/><circle class="cls-1" cx="680.28" cy="99.28" r="8.11"/><circle class="cls-1" cx="706.96" cy="99.28" r="8.11"/><circle class="cls-1" cx="732.84" cy="99.28" r="8.11"/><circle class="cls-1" cx="298.73" cy="120.41" r="8.11"/><circle class="cls-1" cx="325.06" cy="120.41" r="8.11"/><circle class="cls-1" cx="351.38" cy="120.41" r="8.11"/><circle class="cls-1" cx="378.07" cy="120.41" r="8.11"/><circle class="cls-1" cx="403.94" cy="120.41" r="8.11"/><circle class="cls-1" cx="430.59" cy="120.41" r="8.11"/><circle class="cls-1" cx="457.28" cy="120.41" r="8.11"/><circle class="cls-1" cx="483.6" cy="120.41" r="8.11"/><circle class="cls-1" cx="509.93" cy="120.41" r="8.11"/><circle class="cls-1" cx="535.57" cy="120.41" r="8.11"/><circle class="cls-1" cx="562.49" cy="120.41" r="8.11"/><circle class="cls-1" cx="588.27" cy="120.41" r="8.11"/><circle class="cls-1" cx="614.95" cy="120.41" r="8.11"/><circle class="cls-1" cx="641.28" cy="120.41" r="8.11"/><circle class="cls-1" cx="667.6" cy="120.41" r="8.11"/><circle class="cls-1" cx="312.04" cy="143.89" r="8.11"/><circle class="cls-1" cx="338.37" cy="143.89" r="8.11"/><circle class="cls-1" cx="364.7" cy="143.89" r="8.11"/><circle class="cls-1" cx="391.38" cy="143.89" r="8.11"/><circle class="cls-1" cx="417.26" cy="143.89" r="8.11"/><circle class="cls-1" cx="443.91" cy="143.89" r="8.11"/><circle class="cls-1" cx="470.59" cy="143.89" r="8.11"/><circle class="cls-1" cx="496.92" cy="143.89" r="8.11"/><circle class="cls-1" cx="523.24" cy="143.89" r="8.11"/><circle class="cls-1" cx="548.89" cy="143.89" r="8.11"/><circle class="cls-1" cx="575.81" cy="143.89" r="8.11"/><circle class="cls-1" cx="601.58" cy="143.89" r="8.11"/><circle class="cls-1" cx="628.27" cy="143.89" r="8.11"/><circle class="cls-1" cx="654.59" cy="143.89" r="8.11"/><circle class="cls-1" cx="298.68" cy="165.8" r="8.11"/><circle class="cls-1" cx="325" cy="165.8" r="8.11"/><circle class="cls-1" cx="351.33" cy="165.8" r="8.11"/><circle class="cls-1" cx="378.02" cy="165.8" r="8.11"/><circle class="cls-1" cx="403.89" cy="165.8" r="8.11"/><circle class="cls-1" cx="430.54" cy="165.8" r="8.11"/><circle class="cls-1" cx="457.23" cy="165.8" r="8.11"/><circle class="cls-1" cx="483.55" cy="165.8" r="8.11"/><circle class="cls-1" cx="509.88" cy="165.8" r="8.11"/><circle class="cls-1" cx="535.52" cy="165.8" r="8.11"/><circle class="cls-1" cx="562.44" cy="165.8" r="8.11"/><circle class="cls-1" cx="588.22" cy="165.8" r="8.11"/><circle class="cls-1" cx="614.9" cy="165.8" r="8.11"/><circle class="cls-1" cx="641.23" cy="165.8" r="8.11"/><circle class="cls-1" cx="311.85" cy="187.71" r="8.11"/><circle class="cls-1" cx="338.17" cy="187.71" r="8.11"/><circle class="cls-1" cx="364.5" cy="187.71" r="8.11"/><circle class="cls-1" cx="391.19" cy="187.71" r="8.11"/><circle class="cls-1" cx="417.06" cy="187.71" r="8.11"/><circle class="cls-1" cx="443.71" cy="187.71" r="8.11"/><circle class="cls-1" cx="470.4" cy="187.71" r="8.11"/><circle class="cls-1" cx="496.72" cy="187.71" r="8.11"/><circle class="cls-1" cx="523.05" cy="187.71" r="8.11"/><circle class="cls-1" cx="548.69" cy="187.71" r="8.11"/><circle class="cls-1" cx="575.61" cy="187.71" r="8.11"/><circle class="cls-1" cx="601.39" cy="187.71" r="8.11"/><circle class="cls-1" cx="628.07" cy="187.71" r="8.11"/><circle class="cls-1" cx="351.77" cy="211.38" r="8.11"/><circle class="cls-1" cx="378.1" cy="211.38" r="8.11"/><circle class="cls-1" cx="404.79" cy="211.38" r="8.11"/><circle class="cls-1" cx="430.66" cy="211.38" r="8.11"/><circle class="cls-1" cx="457.31" cy="211.38" r="8.11"/><circle class="cls-1" cx="484" cy="211.38" r="8.11"/><circle class="cls-1" cx="510.32" cy="211.38" r="8.11"/><circle class="cls-1" cx="536.65" cy="211.38" r="8.11"/><circle class="cls-1" cx="562.29" cy="211.38" r="8.11"/><circle class="cls-1" cx="589.21" cy="211.38" r="8.11"/><circle class="cls-1" cx="614.99" cy="211.38" r="8.11"/><circle class="cls-1" cx="364.5" cy="233.3" r="8.11"/><circle class="cls-1" cx="390.83" cy="233.3" r="8.11"/><circle class="cls-1" cx="417.51" cy="233.3" r="8.11"/><circle class="cls-1" cx="443.39" cy="233.3" r="8.11"/><circle class="cls-1" cx="470.04" cy="233.3" r="8.11"/><circle class="cls-1" cx="496.72" cy="233.3" r="8.11"/><circle class="cls-1" cx="523.05" cy="233.3" r="8.11"/><circle class="cls-1" cx="549.37" cy="233.3" r="8.11"/><circle class="cls-1" cx="575.02" cy="233.3" r="8.11"/><circle class="cls-1" cx="614.99" cy="301.64" r="8.11"/><circle class="cls-1" cx="641.31" cy="301.64" r="8.11"/><circle class="cls-1" cx="667.64" cy="301.64" r="8.11"/><circle class="cls-1" cx="601.94" cy="233.3" r="8.11"/><circle class="cls-1" cx="588.36" cy="391.38" r="8.11"/><circle class="cls-1" cx="615.01" cy="391.38" r="8.11"/><circle class="cls-1" cx="641.7" cy="391.38" r="8.11"/><circle class="cls-1" cx="668.02" cy="391.38" r="8.11"/><circle class="cls-1" cx="694.35" cy="391.38" r="8.11"/><circle class="cls-1" cx="719.99" cy="391.38" r="8.11"/><circle class="cls-1" cx="746.91" cy="391.38" r="8.11"/><circle class="cls-1" cx="600.96" cy="458.95" r="8.11"/><circle class="cls-1" cx="627.61" cy="458.95" r="8.11"/><circle class="cls-1" cx="654.29" cy="458.95" r="8.11"/><circle class="cls-1" cx="680.62" cy="458.95" r="8.11"/><circle class="cls-1" cx="706.94" cy="458.95" r="8.11"/><circle class="cls-1" cx="732.59" cy="458.95" r="8.11"/><circle class="cls-1" cx="759.51" cy="458.95" r="8.11"/><circle class="cls-1" cx="600.96" cy="504.34" r="8.11"/><circle class="cls-1" cx="627.61" cy="504.34" r="8.11"/><circle class="cls-1" cx="654.29" cy="504.34" r="8.11"/><circle class="cls-1" cx="680.62" cy="504.34" r="8.11"/><circle class="cls-1" cx="706.94" cy="504.34" r="8.11"/><circle class="cls-1" cx="732.59" cy="504.34" r="8.11"/><circle class="cls-1" cx="759.51" cy="504.34" r="8.11"/><circle class="cls-1" cx="615.08" cy="436.77" r="8.11"/><circle class="cls-1" cx="641.73" cy="436.77" r="8.11"/><circle class="cls-1" cx="668.41" cy="436.77" r="8.11"/><circle class="cls-1" cx="694.74" cy="436.77" r="8.11"/><circle class="cls-1" cx="721.06" cy="436.77" r="8.11"/><circle class="cls-1" cx="746.7" cy="436.77" r="8.11"/><circle class="cls-1" cx="614.42" cy="481.12" r="8.11"/><circle class="cls-1" cx="641.07" cy="481.12" r="8.11"/><circle class="cls-1" cx="667.75" cy="481.12" r="8.11"/><circle class="cls-1" cx="694.08" cy="481.12" r="8.11"/><circle class="cls-1" cx="720.4" cy="481.12" r="8.11"/><circle class="cls-1" cx="746.05" cy="481.12" r="8.11"/><circle class="cls-1" cx="614.42" cy="527.56" r="8.11"/><circle class="cls-1" cx="641.07" cy="527.56" r="8.11"/><circle class="cls-1" cx="667.75" cy="527.56" r="8.11"/><circle class="cls-1" cx="694.08" cy="527.56" r="8.11"/><circle class="cls-1" cx="720.4" cy="527.56" r="8.11"/><circle class="cls-1" cx="746.05" cy="527.56" r="8.11"/><circle class="cls-1" cx="628.4" cy="414.6" r="8.11"/><circle class="cls-1" cx="655.09" cy="414.6" r="8.11"/><circle class="cls-1" cx="681.41" cy="414.6" r="8.11"/><circle class="cls-1" cx="707.74" cy="414.6" r="8.11"/><circle class="cls-1" cx="733.38" cy="414.6" r="8.11"/><circle class="cls-1" cx="760.3" cy="414.6" r="8.11"/><circle class="cls-1" cx="378" cy="256.51" r="8.11"/><circle class="cls-1" cx="404.33" cy="256.51" r="8.11"/><circle class="cls-1" cx="431.02" cy="256.51" r="8.11"/><circle class="cls-1" cx="456.89" cy="256.51" r="8.11"/><circle class="cls-1" cx="483.54" cy="256.51" r="8.11"/><circle class="cls-1" cx="443.39" cy="323.56" r="8.11"/><circle class="cls-1" cx="469.71" cy="323.56" r="8.11"/><circle class="cls-1" cx="496.4" cy="323.56" r="8.11"/><circle class="cls-1" cx="522.28" cy="323.56" r="8.11"/><circle class="cls-1" cx="509.48" cy="346.51" r="8.11"/><circle class="cls-1" cx="535.81" cy="346.51" r="8.11"/><circle class="cls-1" cx="562.49" cy="346.51" r="8.11"/><circle class="cls-1" cx="575.02" cy="369.47" r="8.11"/><circle class="cls-1" cx="588.37" cy="346.51" r="8.11"/><circle class="cls-1" cx="548.93" cy="323.56" r="8.11"/><circle class="cls-1" cx="626.78" cy="323.56" r="8.11"/><circle class="cls-1" cx="653.1" cy="323.56" r="8.11"/><circle class="cls-1" cx="679.79" cy="323.56" r="8.11"/><circle class="cls-1" cx="705.66" cy="323.56" r="8.11"/><circle class="cls-1" cx="653.91" cy="369.47" r="8.11"/><circle class="cls-1" cx="680.23" cy="369.47" r="8.11"/><circle class="cls-1" cx="706.92" cy="369.47" r="8.11"/><circle class="cls-1" cx="732.79" cy="369.47" r="8.11"/><circle class="cls-1" cx="732.31" cy="323.56" r="8.11"/><circle class="cls-1" cx="588.52" cy="256.51" r="8.11"/><circle class="cls-1" cx="615.44" cy="256.51" r="8.11"/><circle class="cls-1" cx="390.83" cy="278.43" r="8.11"/><circle class="cls-1" cx="417.15" cy="278.43" r="8.11"/><circle class="cls-1" cx="443.84" cy="278.43" r="8.11"/><circle class="cls-1" cx="469.71" cy="278.43" r="8.11"/><circle class="cls-1" cx="601.34" cy="278.43" r="8.11"/><circle class="cls-1" cx="628.26" cy="278.43" r="8.11"/><circle class="cls-1" cx="534.91" cy="301.64" r="8.11"/><circle class="cls-1" cx="561.84" cy="301.64" r="8.11"/><circle class="cls-1" cx="746.53" cy="346.51" r="8.11"/><circle class="cls-1" cx="429.42" cy="301.64" r="8.11"/><circle class="cls-1" cx="456.11" cy="301.64" r="8.11"/><circle class="cls-1" cx="481.98" cy="301.64" r="8.11"/><circle class="cls-1" cx="680.92" cy="143.89" r="8.11"/><circle class="cls-1" cx="694.29" cy="120.41" r="8.11"/><circle class="cls-1" cx="720.17" cy="120.41" r="8.11"/><circle class="cls-1" cx="760.05" cy="53.1" r="8.11"/><circle class="cls-1" cx="733.51" cy="8.17" r="8.11"/><circle class="cls-1" cx="706.96" cy="8.17" r="8.11"/></g></svg>