<?xml version="1.0" encoding="utf-8"?>
<!-- Generator: Adobe Illustrator 27.9.0, SVG Export Plug-In . SVG Version: 6.00 Build 0)  -->
<svg version="1.1" id="Layer_1" xmlns="http://www.w3.org/2000/svg" xmlns:xlink="http://www.w3.org/1999/xlink" x="0px" y="0px"
	 viewBox="0 0 512 512" style="enable-background:new 0 0 512 512;" xml:space="preserve">
<style type="text/css">
	.st0{fill:#FFFFFF;}
</style>
<g>
	<path class="st0" d="M73.8,0l-4.3,0.6h-3.7h-0.6h-1.8c-2.2,0.5-4.2,1.3-6.2,2.5c-2.1,1.1-4,2.5-5.5,4.3
		C44,13.9,39.4,23.9,39.4,33.3v448.8c0,9.7,4.3,21.4,14.8,27.1l2.5,0.6l1.8,0.6c9.4,3.2,19.2,1.3,26.5-3.1h0.6
		C94.1,502.1,270.9,394,270.9,394l94.2-56.6c0,0,79.9-48.3,90.5-54.8c9-5.5,17.4-15.9,17.2-28.3c-0.2-12.5-8.8-21.7-17.2-26.5
		c-2.7-1.5-26.4-15.8-48-28.9c-20.7-12.6-38.9-23.6-40.6-24.6l-2-1.3l-94.2-57.3c0,0-171.4-104-181.6-110.2
		C84.6,2.8,79.2,0.6,73.8,0z M78.7,61l185.9,193.9L78.7,448.8V61z M173.5,102.8c34.8,21.1,77,46.8,77,46.8l72.7,44.3l-31.4,32.6
		L173.5,102.8z M357.6,214.9c7.5,4.6,14.5,8.7,29.6,17.9c16.5,10,27.9,16.4,37.6,22.2c-18.1,10.9-52.4,32.1-66.5,40.6L319.5,255
		L357.6,214.9z M291.7,283.8l31.4,32.6l-72.7,44.3c0,0-43.2,25.9-77.6,46.8L291.7,283.8z"/>
</g>
</svg>
