<?xml version="1.0" encoding="UTF-8"?><svg id="Calque_2" xmlns="http://www.w3.org/2000/svg" viewBox="0 0 291.43 305.46"><defs><style>.cls-1{fill:#e2e8f1;stroke-width:0px;}</style></defs><g id="Calque_2-2"><path class="cls-1" d="m288.93,305.46c-.31,0-.62-.06-.93-.18-3.72-1.49-7.47-3.05-11.12-4.62-1.27-.55-1.85-2.02-1.31-3.28.55-1.27,2.02-1.85,3.28-1.31,3.62,1.56,7.33,3.1,11.01,4.58,1.28.51,1.9,1.97,1.39,3.25-.39.98-1.33,1.57-2.32,1.57Zm-29.27-12.86c-.36,0-.73-.08-1.08-.25-3.6-1.72-7.23-3.51-10.8-5.33-1.23-.63-1.72-2.13-1.1-3.36.62-1.23,2.13-1.72,3.36-1.1,3.53,1.8,7.13,3.57,10.69,5.27,1.25.6,1.77,2.09,1.18,3.33-.43.9-1.33,1.42-2.26,1.42Zm-28.38-14.71c-.41,0-.83-.1-1.22-.32-3.49-1.95-7-3.97-10.44-6.01-1.19-.7-1.58-2.24-.88-3.42.7-1.19,2.24-1.58,3.42-.88,3.41,2.02,6.89,4.02,10.34,5.95,1.21.67,1.63,2.2.96,3.4-.46.82-1.31,1.28-2.18,1.28Zm-27.39-16.5c-.47,0-.94-.13-1.36-.4-3.35-2.17-6.73-4.41-10.04-6.67-1.14-.78-1.44-2.33-.66-3.47.78-1.14,2.33-1.44,3.47-.66,3.28,2.23,6.62,4.45,9.94,6.6,1.16.75,1.49,2.3.74,3.46-.48.74-1.28,1.14-2.1,1.14Zm-26.28-18.22c-.52,0-1.04-.16-1.49-.49-3.21-2.38-6.44-4.83-9.6-7.29-1.09-.85-1.28-2.42-.44-3.51.85-1.09,2.42-1.28,3.51-.44,3.13,2.44,6.32,4.87,9.5,7.22,1.11.82,1.34,2.39.52,3.5-.49.66-1.25,1.01-2.01,1.01Zm-25.07-19.86c-.57,0-1.14-.19-1.61-.59-3.05-2.58-6.12-5.23-9.11-7.89-1.03-.92-1.13-2.5-.21-3.53.92-1.03,2.5-1.13,3.53-.21,2.97,2.63,6,5.26,9.02,7.81,1.05.89,1.19,2.47.3,3.52-.49.58-1.2.89-1.91.89Zm-23.76-21.41c-.62,0-1.25-.23-1.73-.7-2.89-2.77-5.78-5.62-8.6-8.46-.97-.98-.97-2.56.01-3.54.98-.97,2.56-.97,3.54.01,2.79,2.81,5.65,5.62,8.51,8.37,1,.96,1.03,2.54.07,3.53-.49.51-1.15.77-1.8.77Zm-22.36-22.88c-.68,0-1.35-.27-1.84-.81-2.71-2.95-5.41-5.98-8.04-8.99-.91-1.04-.8-2.62.24-3.53,1.04-.91,2.62-.8,3.53.24,2.6,2.98,5.28,5.97,7.96,8.9.93,1.02.86,2.6-.15,3.53-.48.44-1.08.66-1.69.66Zm-20.86-24.26c-.73,0-1.45-.32-1.95-.93-2.51-3.12-5.02-6.31-7.46-9.48-.84-1.1-.63-2.67.46-3.51,1.1-.84,2.67-.63,3.51.46,2.41,3.14,4.9,6.3,7.38,9.39.87,1.08.7,2.65-.38,3.52-.46.37-1.02.55-1.57.55Zm-19.27-25.54c-.78,0-1.56-.37-2.04-1.06-2.31-3.27-4.61-6.61-6.84-9.94-.77-1.15-.46-2.7.68-3.47,1.15-.77,2.7-.46,3.47.68,2.21,3.29,4.49,6.61,6.77,9.84.8,1.13.53,2.69-.6,3.48-.44.31-.94.46-1.44.46Zm-17.61-26.72c-.84,0-1.66-.42-2.13-1.19-2.09-3.41-4.17-6.89-6.19-10.36-.69-1.19-.29-2.72.9-3.42,1.19-.69,2.72-.29,3.42.9,2,3.43,4.06,6.88,6.13,10.26.72,1.18.35,2.72-.82,3.44-.41.25-.86.37-1.31.37Zm-15.87-27.8c-.9,0-1.76-.48-2.21-1.33-1.87-3.54-3.73-7.16-5.52-10.74-.62-1.24-.11-2.74,1.12-3.35,1.24-.62,2.74-.11,3.35,1.12,1.77,3.55,3.6,7.12,5.46,10.63.65,1.22.18,2.73-1.04,3.38-.37.2-.77.29-1.17.29Zm-14.05-28.77c-.95,0-1.87-.55-2.28-1.48-1.64-3.66-3.26-7.38-4.82-11.07-.54-1.27.06-2.74,1.34-3.27,1.27-.53,2.74.06,3.27,1.34,1.54,3.65,3.14,7.34,4.77,10.96.57,1.26,0,2.74-1.26,3.3-.33.15-.68.22-1.02.22ZM6.57,16.31c-1.01,0-1.97-.62-2.34-1.62C2.83,10.94,1.45,7.11.14,3.32-.31,2.01.38.59,1.68.14c1.31-.45,2.73.24,3.18,1.54,1.3,3.76,2.67,7.54,4.05,11.25.48,1.29-.17,2.73-1.47,3.22-.29.11-.58.16-.88.16Z"/></g></svg>